<svg width="24" height="24" viewBox="0 0 24 24" fill="none" xmlns="http://www.w3.org/2000/svg">
<circle cx="12" cy="12" r="12" fill="url(#paint0_linear_301_2719)"/>
<path d="M17.9647 9.53664C17.9574 9.03197 17.864 8.5313 17.6854 8.0593C17.3727 7.2533 16.736 6.61597 15.93 6.30397C15.464 6.12864 14.9714 6.03464 14.4727 6.02397C13.8314 5.9953 13.628 5.9873 12 5.9873C10.372 5.9873 10.1634 5.9873 9.52671 6.02397C9.02871 6.03464 8.53605 6.12864 8.07005 6.30397C7.26405 6.61597 6.62671 7.2533 6.31471 8.0593C6.13938 8.52531 6.04471 9.01797 6.03538 9.51597C6.00671 10.158 5.99805 10.3613 5.99805 11.9893C5.99805 13.6173 5.99805 13.8253 6.03538 14.4626C6.04538 14.9613 6.13938 15.4533 6.31471 15.9206C6.62738 16.726 7.26405 17.3633 8.07071 17.6753C8.53471 17.8566 9.02738 17.9593 9.52738 17.9753C10.1694 18.004 10.3727 18.0126 12.0007 18.0126C13.6287 18.0126 13.8374 18.0126 14.474 17.9753C14.972 17.9653 15.4647 17.8713 15.9314 17.696C16.7374 17.3833 17.374 16.746 17.6867 15.9406C17.862 15.474 17.956 14.982 17.966 14.4826C17.9947 13.8413 18.0034 13.638 18.0034 12.0093C18.002 10.3813 18.002 10.1746 17.9647 9.53664ZM11.996 15.068C10.2934 15.068 8.91405 13.6886 8.91405 11.986C8.91405 10.2833 10.2934 8.90397 11.996 8.90397C13.6974 8.90397 15.078 10.2833 15.078 11.986C15.078 13.6886 13.6974 15.068 11.996 15.068ZM15.2007 9.50864C14.8027 9.50864 14.482 9.1873 14.482 8.78997C14.482 8.39264 14.8027 8.0713 15.2007 8.0713C15.5974 8.0713 15.9187 8.39264 15.9187 8.78997C15.9187 9.1873 15.5974 9.50864 15.2007 9.50864Z" fill="white"/>
<path d="M11.9961 13.988C13.1018 13.988 13.9981 13.0917 13.9981 11.986C13.9981 10.8803 13.1018 9.98401 11.9961 9.98401C10.8905 9.98401 9.99414 10.8803 9.99414 11.986C9.99414 13.0917 10.8905 13.988 11.9961 13.988Z" fill="white"/>
<defs>
<linearGradient id="paint0_linear_301_2719" x1="4.5" y1="1" x2="20.5" y2="21" gradientUnits="userSpaceOnUse">
<stop offset="0.0219273" stop-color="#FE9B58"/>
<stop offset="0.297974" stop-color="#E0245F" stop-opacity="0.950482"/>
<stop offset="0.626105" stop-color="#B727A2" stop-opacity="0.914765"/>
<stop offset="1" stop-color="#663DCA"/>
</linearGradient>
</defs>
</svg>
