<svg width="147" height="59" viewBox="0 0 147 59" fill="none" xmlns="http://www.w3.org/2000/svg">
<path d="M24.1674 19.0098H15.9401V44.338H9.95266V19.0098H1.76839V13.6685H24.1674V19.0098ZM78.5275 35.5076C78.5275 38.3505 77.7522 40.533 76.2015 42.055C74.6795 43.577 72.5401 44.338 69.7833 44.338H65.6481C62.2595 44.338 59.8473 43.7493 58.4115 42.5719C57.0043 41.3945 56.3008 39.3556 56.3008 36.4552V13.6685H69.2664C72.1955 13.6685 74.3923 14.4008 75.8569 15.8653C77.3502 17.3299 78.0968 19.3975 78.0968 22.0681C78.0968 23.6188 77.6948 24.9398 76.8907 26.031C76.1153 27.1223 75.2538 27.8976 74.3062 28.3571C77.1204 29.6781 78.5275 32.0615 78.5275 35.5076ZM68.7926 25.6434C71.0038 25.6434 72.1093 24.5378 72.1093 22.3266C72.1093 20.1154 71.0038 19.0098 68.7926 19.0098H62.2882V25.6434H68.7926ZM72.5401 35.206C72.5401 33.8276 72.296 32.7938 71.8078 32.1046C71.3196 31.3867 70.4438 31.0277 69.1802 31.0277H62.2882V35.8522C62.2882 37.0295 62.5754 37.848 63.1497 38.3074C63.7528 38.7669 64.7291 38.9966 66.0788 38.9966H69.1802C71.4201 38.9966 72.5401 37.7331 72.5401 35.206Z" fill="#1081E8"/>
<path d="M52.0926 44.338H45.8467L44.1237 39.0397H33.8287L32.1488 44.338H25.9029L35.724 16.253C36.1548 15.2766 36.6286 14.6018 37.1455 14.2285C37.6911 13.8551 38.3516 13.6685 39.127 13.6685C39.9023 13.6685 40.5197 13.8408 40.9792 14.1854C41.4674 14.53 41.8981 15.2192 42.2714 16.253L52.0926 44.338ZM42.7453 33.9999L39.127 21.8528L35.3363 33.9999H42.7453Z" fill="#1C1C1C"/>
<path d="M102.122 16.8587H97.6061V30.7606H94.3197V16.8587H89.8276V13.927H102.122V16.8587ZM115.771 30.7606H109.813C107.921 30.7606 106.589 30.4375 105.817 29.7913C105.06 29.1293 104.682 27.9708 104.682 26.3158V13.927H115.771V16.8587H107.968V20.807H113.43L113.193 23.7387H107.968V26.0794C107.968 26.7414 108.118 27.1984 108.418 27.4506C108.717 27.7028 109.261 27.8289 110.049 27.8289H115.771V30.7606ZM132.284 30.7606H128.218L124.695 24.8972L121.219 30.7606H117.153L122.803 22.131L117.508 13.927H121.55L124.695 19.3648L127.887 13.927H131.906L126.61 22.131L132.284 30.7606ZM145.067 16.8587H140.551V30.7606H137.265V16.8587H132.772V13.927H145.067V16.8587Z" fill="#1C1C1C"/>
<path d="M97.4247 42.3948H95.828L95.3876 41.0403H92.7558L92.3263 42.3948H90.7296L93.2403 35.2152C93.3504 34.9656 93.4715 34.793 93.6037 34.6976C93.7432 34.6022 93.912 34.5545 94.1102 34.5545C94.3084 34.5545 94.4663 34.5985 94.5837 34.6866C94.7085 34.7747 94.8186 34.9509 94.9141 35.2152L97.4247 42.3948ZM95.0352 39.752L94.1102 36.6467L93.1412 39.752H95.0352ZM118.194 40.1374C118.194 40.8642 117.996 41.4221 117.599 41.8112C117.21 42.2002 116.663 42.3948 115.959 42.3948H114.902C114.035 42.3948 113.419 42.2443 113.052 41.9433C112.692 41.6423 112.512 41.1211 112.512 40.3796V34.5545H115.827C116.575 34.5545 117.137 34.7417 117.511 35.1161C117.893 35.4905 118.084 36.019 118.084 36.7017C118.084 37.0982 117.981 37.4358 117.776 37.7148C117.577 37.9938 117.357 38.192 117.115 38.3094C117.834 38.6471 118.194 39.2564 118.194 40.1374ZM115.705 37.6157C116.271 37.6157 116.553 37.3331 116.553 36.7678C116.553 36.2025 116.271 35.9199 115.705 35.9199H114.043V37.6157H115.705ZM116.663 40.0603C116.663 39.7079 116.601 39.4436 116.476 39.2675C116.351 39.0839 116.128 38.9922 115.805 38.9922H114.043V40.2255C114.043 40.5265 114.116 40.7357 114.263 40.8531C114.417 40.9706 114.667 41.0293 115.012 41.0293H115.805C116.377 41.0293 116.663 40.7063 116.663 40.0603ZM131.245 34.5545V39.7079C131.245 40.5595 130.955 41.2312 130.375 41.7231C129.803 42.2149 129.094 42.4608 128.25 42.4608C127.406 42.4608 126.694 42.2149 126.114 41.7231C125.541 41.2312 125.255 40.5595 125.255 39.7079V34.5545H126.785V39.6529C126.785 40.1374 126.918 40.5008 127.182 40.743C127.453 40.9779 127.809 41.0954 128.25 41.0954C128.69 41.0954 129.046 40.9779 129.318 40.743C129.59 40.5008 129.726 40.1374 129.726 39.6529V34.5545H131.245ZM143.919 34.5545L141.563 39.1794V42.3948H140.043V39.1794L137.687 34.5545H139.349L140.814 37.7148L142.256 34.5545H143.919Z" fill="#1081E8"/>
</svg>
