<svg width="24" height="24" viewBox="0 0 24 24" fill="none" xmlns="http://www.w3.org/2000/svg">
<circle cx="12" cy="12" r="12" fill="#00A8FF"/>
<path d="M17.0893 9.33132C17.098 9.44799 17.098 9.56399 17.098 9.67999C17.098 13.23 14.396 17.3207 9.45798 17.3207C7.93665 17.3207 6.52332 16.88 5.33398 16.1147C5.54998 16.1393 5.75798 16.148 5.98265 16.148C7.23798 16.148 8.39332 15.724 9.31665 15.0007C8.13598 14.976 7.14665 14.2027 6.80532 13.1387C6.97132 13.1633 7.13798 13.18 7.31265 13.18C7.55332 13.18 7.79532 13.1467 8.01998 13.0887C6.78865 12.8393 5.86665 11.7587 5.86665 10.4533V10.42C6.22465 10.6193 6.63998 10.744 7.07998 10.7607C6.35665 10.2793 5.88265 9.45599 5.88265 8.52465C5.88265 8.02599 6.01532 7.56865 6.24798 7.16999C7.56998 8.79865 9.55732 9.86332 11.7853 9.97999C11.744 9.77999 11.7187 9.57265 11.7187 9.36465C11.7187 7.88465 12.916 6.67932 14.404 6.67932C15.1773 6.67932 15.8753 7.00332 16.366 7.52732C16.9727 7.41065 17.554 7.18599 18.07 6.87865C17.8707 7.50199 17.446 8.02599 16.8893 8.35865C17.43 8.29999 17.954 8.15065 18.4353 7.94265C18.07 8.47465 17.6133 8.94865 17.0893 9.33132Z" fill="white"/>
</svg>
